<svg width="1439" height="307" viewBox="0 0 1440 307" fill="none" xmlns="http://www.w3.org/2000/svg">
<mask id="mask0" mask-type="alpha" maskUnits="userSpaceOnUse" x="0" y="0" width="1440" height="307">
<rect width="1440" height="307" fill="url(#paint0_linear)"/>
</mask>
<g mask="url(#mask0)">
<path opacity="0.19" d="M0 419.5L1439 419.5L1439 140.5C1439 140.5 1201 34.5001 703.5 134.5C206 234.5 3.54499e-05 14 3.54499e-05 14L0 419.5Z" fill="url(#paint1_linear)"/>
<path d="M1 498.5L1440 498.5L1440 289.5C1440 289.5 1257 146 754.5 191C252 236 1.00004 72.5 1.00004 72.5L1 498.5Z" fill="url(#paint2_linear)"/>
</g>
<defs>
<linearGradient id="paint0_linear" x1="720" y1="0" x2="720" y2="307" gradientUnits="userSpaceOnUse">
<stop/>
<stop offset="1" stop-opacity="0"/>
</linearGradient>
<linearGradient id="paint1_linear" x1="25" y1="14" x2="155.903" y2="568.217" gradientUnits="userSpaceOnUse">
<stop stop-color="#00F3B9"/>
<stop offset="1" stop-color="#2187FF"/>
</linearGradient>
<linearGradient id="paint2_linear" x1="26" y1="72.5" x2="169.686" y2="651.563" gradientUnits="userSpaceOnUse">
<stop stop-color="#00F3B9"/>
<stop offset="1" stop-color="#2187FF"/>
</linearGradient>
</defs>
</svg>
