<svg width="20" height="24" viewBox="0 0 20 24" fill="none" xmlns="http://www.w3.org/2000/svg">
<path d="M9.59984 14.4004C12.2471 14.4004 14.3999 12.2476 14.3999 9.60033C14.3999 6.95311 12.2471 4.80029 9.59984 4.80029C6.95262 4.80029 4.7998 6.95311 4.7998 9.60033C4.7998 12.2476 6.95262 14.4004 9.59984 14.4004ZM9.59984 7.20031C10.9235 7.20031 11.9999 8.27672 11.9999 9.60033C11.9999 10.9239 10.9235 12.0004 9.59984 12.0004C8.27623 12.0004 7.19982 10.9239 7.19982 9.60033C7.19982 8.27672 8.27623 7.20031 9.59984 7.20031Z" fill="white"/>
<path d="M8.90418 23.777C9.10728 23.922 9.35061 24 9.60018 24C9.84975 24 10.0931 23.922 10.2962 23.777C10.661 23.519 19.2351 17.3281 19.2003 9.60008C19.2003 4.30683 14.8934 0 9.60018 0C4.30694 0 0.000105646 4.30683 0.000105646 9.59408C-0.0346946 17.3281 8.53938 23.519 8.90418 23.777ZM9.60018 2.40002C13.571 2.40002 16.8002 5.62925 16.8002 9.60608C16.8254 14.9317 11.5346 19.7138 9.60018 21.2822C7.66697 19.7126 2.37492 14.9293 2.40013 9.60008C2.40013 5.62924 5.62935 2.40002 9.60018 2.40002Z" fill="white"/>
</svg>
