<svg width="28" height="28" viewBox="0 0 28 28" fill="none" xmlns="http://www.w3.org/2000/svg">
<path d="M14 0C6.26875 0 0 6.26875 0 14C0 21.7313 6.26875 28 14 28C21.7313 28 28 21.7313 28 14C28 6.26875 21.7313 0 14 0ZM20.5781 19.1375C20.2188 19.1813 19.175 17.4906 19.175 17.4906C19.175 18.4688 18.6688 19.7469 17.5781 20.6719C18.1063 20.8344 19.2938 21.2719 19.0125 21.7469C18.7844 22.1313 15.0875 21.9938 14.0187 21.8719C12.95 21.9906 9.25312 22.1313 9.025 21.7469C8.74062 21.2719 9.92813 20.8344 10.4563 20.6719C9.3625 19.75 8.85938 18.4719 8.85938 17.4906C8.85938 17.4906 7.81563 19.1813 7.45625 19.1375C7.2875 19.1156 7.06875 18.2125 7.75 16.0219C8.07187 14.9906 8.4375 14.1312 9.00625 12.7156C8.90938 9.0625 10.4219 5.99687 14.0187 5.99687C17.5781 5.99687 19.1219 9 19.0312 12.7156C19.5969 14.1281 19.9656 14.9906 20.2875 16.0219C20.9656 18.2125 20.7437 19.1188 20.5781 19.1375Z" fill="white"/>
</svg>
