<svg width="30" height="24" viewBox="0 0 30 24" fill="none" xmlns="http://www.w3.org/2000/svg">
<path d="M12.9359 13.0629C10.6011 12.4561 7.96451 13.6184 6.94966 15.6755C5.91767 17.7738 6.91537 20.1017 9.27421 20.8629C11.7153 21.6514 14.5953 20.4446 15.5964 18.1783C16.5804 15.9635 15.3496 13.6869 12.9359 13.0629ZM11.1531 18.4183C10.6799 19.176 9.66164 19.5052 8.89707 19.1589C8.14279 18.816 7.91994 17.9349 8.3965 17.1978C8.86621 16.4641 9.84678 16.1349 10.6045 16.4538C11.3725 16.7795 11.6193 17.6538 11.1531 18.4183ZM12.713 16.4126C12.5416 16.7075 12.161 16.8481 11.8662 16.7246C11.5748 16.6046 11.4822 16.2755 11.6468 15.9875C11.8182 15.6995 12.1816 15.5624 12.473 15.6755C12.7713 15.7852 12.8776 16.1178 12.713 16.4126ZM24.1815 9.65155C24.6958 9.81612 25.2444 9.53498 25.4124 9.02412C25.8169 7.76928 25.5632 6.33614 24.6169 5.28701C24.1677 4.7892 23.5954 4.41844 22.9574 4.21201C22.3194 4.00557 21.6384 3.97074 20.9827 4.11102C20.8572 4.13769 20.7383 4.18884 20.6326 4.26154C20.5269 4.33425 20.4367 4.42708 20.3669 4.53472C20.2972 4.64235 20.2493 4.76269 20.2262 4.88884C20.203 5.01499 20.2049 5.14447 20.2318 5.26987C20.2586 5.39514 20.3099 5.5139 20.3827 5.61932C20.4555 5.72473 20.5484 5.81474 20.6561 5.88418C20.7637 5.95362 20.8841 6.00112 21.0101 6.02397C21.1362 6.04681 21.2655 6.04454 21.3907 6.01729C22.0215 5.88358 22.7038 6.079 23.1701 6.58986C23.3903 6.83314 23.5421 7.13037 23.6101 7.45134C23.6782 7.77232 23.66 8.10558 23.5575 8.41727C23.5171 8.53927 23.5012 8.66806 23.5107 8.79622C23.5202 8.92439 23.555 9.04942 23.613 9.16412C23.6709 9.27881 23.751 9.38092 23.8486 9.46457C23.9462 9.54822 24.0593 9.61176 24.1815 9.65155ZM27.6032 2.58875C25.6592 0.432191 22.7895 -0.390659 20.1393 0.171622C19.9934 0.202464 19.855 0.261857 19.7322 0.346383C19.6093 0.430909 19.5044 0.538898 19.4235 0.664134C19.3425 0.789369 19.2872 0.929377 19.2606 1.0761C19.2339 1.22282 19.2366 1.37335 19.2684 1.51904C19.2995 1.66493 19.3589 1.80328 19.4435 1.92618C19.528 2.04908 19.6359 2.15413 19.761 2.23532C19.8861 2.31651 20.026 2.37225 20.1727 2.39936C20.3194 2.42647 20.47 2.42442 20.6158 2.39332C22.5015 1.99218 24.5381 2.57846 25.9232 4.11102C27.3049 5.64358 27.6786 7.73499 27.0889 9.56583C26.8969 10.1624 27.2226 10.8001 27.8192 10.9955C28.4158 11.1875 29.0535 10.8618 29.2455 10.2687V10.2653C30.0718 7.68013 29.5506 4.74187 27.6032 2.58875ZM22.2512 11.5544C21.833 11.431 21.5484 11.3452 21.7678 10.7967C22.241 9.60697 22.289 8.57841 21.7781 7.84813C20.8181 6.47329 18.185 6.54871 15.1679 7.81042C15.1679 7.81042 14.2216 8.22527 14.4616 7.47442C14.9245 5.983 14.8559 4.73501 14.1325 4.01159C12.497 2.37275 8.14622 4.0733 4.41254 7.80356C1.6217 10.5978 0 13.5601 0 16.1212C0 21.0206 6.28109 24 12.4285 24C20.4855 24 25.8444 19.32 25.8444 15.6001C25.8444 13.3544 23.9518 12.0824 22.2512 11.5544ZM12.4456 22.2446C7.5428 22.728 3.30854 20.5132 2.98969 17.2903C2.67084 14.0709 6.39081 11.0675 11.2936 10.5841C16.1964 10.0973 20.4307 12.3155 20.7495 15.5349C21.065 18.7543 17.3484 21.7577 12.4456 22.2446Z" fill="white"/>
</svg>
