<svg width="30" height="24" viewBox="0 0 30 24" fill="none" xmlns="http://www.w3.org/2000/svg">
<path d="M20.7834 7.52199C20.9792 7.52199 21.1751 7.52863 21.3676 7.53859C20.5577 3.26639 16.1129 0 10.7485 0C4.81328 0 0 4.00332 0 8.94274C0 11.6349 1.4473 14.0614 3.71452 15.7012C3.80803 15.7673 3.8843 15.8548 3.93687 15.9565C3.98944 16.0582 4.01679 16.171 4.0166 16.2855C4.0166 16.3651 4 16.4382 3.98008 16.5145C3.79751 17.1884 3.50871 18.2672 3.49543 18.317C3.4722 18.4033 3.439 18.4896 3.439 18.5792C3.439 18.7751 3.59834 18.9378 3.79751 18.9378C3.87386 18.9378 3.93693 18.9079 4.00332 18.8714L6.35684 17.5137C6.53278 17.4108 6.72199 17.3477 6.9278 17.3477C7.03402 17.3477 7.14025 17.3643 7.24315 17.3942C8.34191 17.7095 9.52697 17.8855 10.7519 17.8855C10.951 17.8855 11.1469 17.8822 11.3427 17.8722C11.107 17.1751 10.9809 16.4415 10.9809 15.6813C10.9809 11.1734 15.3693 7.52199 20.7834 7.52199ZM14.3336 4.65062C15.1236 4.65062 15.7676 5.29128 15.7676 6.08133C15.7676 6.87137 15.127 7.51203 14.3336 7.51203C13.5436 7.51203 12.8996 6.87137 12.8996 6.08133C12.8996 5.29128 13.5436 4.65062 14.3336 4.65062ZM7.1668 7.51203C6.37676 7.51203 5.73278 6.87137 5.73278 6.08133C5.73278 5.29128 6.37344 4.65062 7.1668 4.65062C7.96016 4.65062 8.60083 5.29128 8.60083 6.08133C8.60083 6.87137 7.95684 7.51203 7.1668 7.51203ZM26.6456 21.3079C28.5344 19.9402 29.7394 17.922 29.7394 15.6747C29.7394 11.5585 25.7295 8.2224 20.7801 8.2224C15.834 8.2224 11.8207 11.5585 11.8207 15.6747C11.8207 19.7909 15.8307 23.127 20.7801 23.127C21.8025 23.127 22.7917 22.9809 23.7046 22.7187C23.7909 22.6921 23.8772 22.6788 23.9668 22.6788C24.1394 22.6788 24.2954 22.7319 24.4415 22.8149L26.4033 23.9436C26.4597 23.9768 26.5129 24 26.5759 24C26.6153 24.0003 26.6543 23.9928 26.6908 23.978C26.7272 23.9632 26.7604 23.9414 26.7884 23.9137C26.816 23.8857 26.8379 23.8525 26.8527 23.8161C26.8675 23.7796 26.875 23.7406 26.8747 23.7012C26.8747 23.6282 26.8448 23.5552 26.8282 23.4821C26.8182 23.4423 26.5759 22.5427 26.4232 21.9784C26.4066 21.9153 26.3934 21.8523 26.3934 21.7892C26.3967 21.5934 26.4963 21.4174 26.6456 21.3079ZM17.7992 14.4863C17.1386 14.4863 16.6041 13.9519 16.6041 13.2946C16.6041 12.6373 17.1386 12.1029 17.7992 12.1029C18.4597 12.1029 18.9942 12.6373 18.9942 13.2946C18.9942 13.9519 18.4564 14.4863 17.7992 14.4863ZM23.7709 14.4863C23.1104 14.4863 22.5759 13.9519 22.5759 13.2946C22.5759 12.6373 23.1104 12.1029 23.7709 12.1029C24.4315 12.1029 24.966 12.6373 24.966 13.2946C24.9644 13.6107 24.8379 13.9134 24.614 14.1367C24.3901 14.3599 24.0871 14.4856 23.7709 14.4863Z" fill="white"/>
</svg>
