<svg width="143" height="143" viewBox="0 0 143 143" fill="none" xmlns="http://www.w3.org/2000/svg">
<rect width="143" height="143" fill="#E5E5E5"/>
<rect x="-426" y="-6688" width="2223" height="9737" fill="#C4C4C4" stroke="#666666" stroke-width="6"/>
<g clip-path="url(#clip0)" filter="url(#filter0_d)">
<rect width="1440" height="2253" transform="translate(-167 -426)" fill="#191E30"/>
<path opacity="0.19" d="M1273 -383H-167V-103.656C-167 -103.656 71.1654 2.47473 569.011 -97.6486C1066.86 -197.772 1273 23 1273 23V-383Z" fill="url(#paint0_linear)"/>
<circle opacity="0.5" cx="114" cy="96" r="29" fill="#0AD4CE"/>
<path d="M103.819 72.6524C104.37 72.6524 104.815 72.2064 104.815 71.6563V69.2178C104.815 65.7093 101.961 62.8548 98.4524 62.8548H97.7143C99.273 61.4441 100.254 59.4062 100.254 57.1433C100.254 52.8952 96.7979 49.4391 92.5498 49.4391C88.3017 49.4391 84.8456 52.8952 84.8456 57.1433C84.8456 59.4062 85.8266 61.4441 87.3852 62.8548H86.6468C84.2615 62.8548 82.1107 64.1805 81.0214 66.2394C80.8874 66.1976 80.7523 66.158 80.6158 66.1215L75.3 64.6977V61.8676C77.817 60.3652 79.521 57.6397 79.5884 54.5171H80.7437C82.4766 54.5171 83.8864 53.1073 83.8864 51.3744C83.8864 49.892 82.8545 48.6469 81.4714 48.3177V45.6054C81.4711 39.6558 76.6309 34.8154 70.6813 34.8154C64.7317 34.8154 59.8913 39.6558 59.8913 45.6054V48.3944C58.6453 48.812 57.7447 49.9897 57.7447 51.3744C57.7447 53.1072 59.1545 54.5171 60.8874 54.5171H62.0428C62.1101 57.6395 63.814 60.3652 66.3311 61.8676V64.6977L61.0151 66.1215C60.8787 66.1581 60.7436 66.1976 60.6097 66.2394C59.5204 64.1807 57.3696 62.8548 54.9843 62.8548H54.2459C55.8046 61.4441 56.7855 59.4062 56.7855 57.1433C56.7855 52.8952 53.3295 49.4391 49.0813 49.4391C44.8332 49.4391 41.3771 52.8952 41.3771 57.1433C41.3771 59.4062 42.3581 61.4441 43.9168 62.8548H43.1785C39.6698 62.8548 36.8154 65.7092 36.8154 69.2178V71.6563C36.8154 72.2064 37.2613 72.6524 37.8115 72.6524C38.3618 72.6524 38.8076 72.2064 38.8076 71.6563V69.2178C38.8076 66.8078 40.7685 64.847 43.1785 64.847H54.9842C56.5635 64.847 57.9904 65.6946 58.762 67.0215C55.4687 68.8071 53.3174 72.2877 53.3174 76.1546V81.5043H38.8076V76.3047C38.8076 75.7546 38.3618 75.3086 37.8115 75.3086C37.2613 75.3086 36.8154 75.7546 36.8154 76.3047V82.5004C36.8154 83.0505 37.2613 83.4965 37.8115 83.4965H60.224C59.41 84.7667 58.8142 86.1963 58.5011 87.7396C58.3918 88.2788 58.7401 88.8045 59.2792 88.9139C59.818 89.0231 60.3442 88.675 60.4535 88.1359C61.4483 83.2337 65.8061 79.6755 70.8156 79.6755C76.6456 79.6755 81.3888 84.4192 81.3888 90.25C81.3888 96.0801 76.6456 100.823 70.8156 100.823C65.806 100.823 61.4482 97.2657 60.4535 92.3642C60.3442 91.8249 59.818 91.4768 59.2792 91.5861C58.74 91.6956 58.3916 92.2212 58.5011 92.7605C59.6834 98.5867 64.8622 102.815 70.8154 102.815C77.744 102.815 83.3808 97.1786 83.3808 90.25C83.3808 87.766 82.6563 85.4482 81.4078 83.4965H103.819C104.37 83.4965 104.815 83.0505 104.815 82.5004V76.3047C104.815 75.7546 104.37 75.3086 103.819 75.3086C103.269 75.3086 102.823 75.7546 102.823 76.3047V81.5043H88.3135V76.1546C88.3135 72.2878 86.1623 68.8072 82.8688 67.0215C83.6405 65.6946 85.0674 64.847 86.6467 64.847H98.4524C100.862 64.847 102.823 66.8077 102.823 69.2178V71.6563C102.823 72.2064 103.269 72.6524 103.819 72.6524ZM43.3692 57.1433C43.3692 53.9938 45.9315 51.4313 49.0812 51.4313C52.2308 51.4313 54.7932 53.9937 54.7932 57.1433C54.7932 60.2861 52.2419 62.8438 49.1016 62.8548H49.0607C45.9205 62.8436 43.3692 60.2861 43.3692 57.1433ZM68.7013 69.4148L67.7371 70.2183C67.2885 70.5922 66.7115 70.7069 66.1536 70.5326C65.5962 70.3583 65.187 69.9354 65.031 69.3724L64.4472 67.2646L66.5099 66.7121C66.8493 67.8786 67.65 68.8502 68.7013 69.4148ZM75.1209 66.7122L77.1837 67.2646L76.5998 69.3724C76.444 69.9354 76.0348 70.3582 75.4774 70.5324C74.9195 70.7067 74.3425 70.5921 73.8939 70.2182L72.9297 69.4147C73.9809 68.8502 74.7816 67.8786 75.1209 66.7122ZM81.894 51.3744C81.894 52.0087 81.3777 52.5249 80.7434 52.5249H79.593V50.2239H80.4751H80.7436C81.3777 50.2238 81.894 50.7399 81.894 51.3744ZM61.8835 45.6054C61.8835 40.7543 65.8302 36.8076 70.6813 36.8076C75.5323 36.8076 79.4789 40.7543 79.4789 45.6054V48.2316H76.1819C75.2515 48.2316 74.4947 47.4747 74.4947 46.5445C74.4947 45.9944 74.0489 45.5484 73.4986 45.5484C72.9484 45.5484 72.5025 45.9944 72.5025 46.5445C72.5025 47.4747 71.7458 48.2316 70.8154 48.2316H61.8835V45.6054ZM59.7369 51.3744C59.7369 50.74 60.2531 50.2238 60.8874 50.2238H62.0379V52.5248H60.8874C60.2531 52.5248 59.7369 52.0087 59.7369 51.3744ZM64.03 54.3259V50.2238H70.8154C71.8725 50.2238 72.827 49.7757 73.4986 49.0594C74.1704 49.7757 75.1248 50.2238 76.1819 50.2238H77.6008V54.3259C77.6008 58.0673 74.5569 61.1111 70.8154 61.1111C67.074 61.1111 64.03 58.0673 64.03 54.3259ZM70.8154 63.1034C71.6811 63.1034 72.517 62.9754 73.3077 62.7409V65.4614C73.3077 66.8356 72.1896 67.9535 70.8154 67.9535C69.4412 67.9535 68.3232 66.8356 68.3232 65.4614V62.7409C69.1138 62.9754 69.9498 63.1034 70.8154 63.1034ZM86.3213 76.1546V81.5043H79.8293C77.5441 79.1493 74.348 77.6833 70.8154 77.6833C67.331 77.6833 64.113 79.1339 61.8052 81.5043H55.3096V76.1546C55.3096 72.3626 57.8679 69.0281 61.5306 68.0458L62.5228 67.78L63.111 69.9041C63.4459 71.1136 64.3611 72.0595 65.5591 72.4339C65.9221 72.5473 66.2936 72.6028 66.6621 72.6028C67.5095 72.6028 68.3405 72.3087 69.0125 71.7486L70.8154 70.2462L72.6184 71.7487C73.2907 72.3088 74.1213 72.603 74.9687 72.603C75.3372 72.603 75.7086 72.5475 76.0718 72.434C77.2697 72.0595 78.1848 71.1138 78.5197 69.9042L79.1081 67.78L80.1001 68.0456C83.7629 69.0281 86.3213 72.3626 86.3213 76.1546ZM86.8378 57.1433C86.8378 53.9938 89.4002 51.4313 92.5498 51.4313C95.6994 51.4313 98.2618 53.9937 98.2618 57.1433C98.2618 60.2861 95.7105 62.8438 92.5702 62.8548H92.5293C89.3891 62.8436 86.8378 60.2861 86.8378 57.1433Z" fill="white"/>
<path d="M69.4242 96.1516C70.3161 96.1516 71.1546 95.8043 71.7854 95.1736L76.9113 90.0477C78.2133 88.7457 78.2133 86.6271 76.9112 85.325C75.6091 84.023 73.4906 84.0233 72.1885 85.325L69.4242 88.0896C68.1206 86.8059 66.0157 86.8118 64.7195 88.1077C63.4177 89.4097 63.4177 91.5281 64.7195 92.8302L67.063 95.1736C67.6937 95.8043 68.5323 96.1516 69.4242 96.1516ZM66.1283 89.5166C66.3911 89.2539 66.736 89.1226 67.0811 89.1226C67.4261 89.1226 67.771 89.254 68.0336 89.5164L68.7198 90.2028C68.9066 90.3897 69.16 90.4946 69.4243 90.4946C69.6886 90.4946 69.9417 90.3897 70.1287 90.2028L73.5974 86.7339C74.1227 86.2087 74.9774 86.2083 75.5027 86.7339C76.028 87.2592 76.028 88.1138 75.5027 88.6391L70.3769 93.7648C70.1225 94.0193 69.7841 94.1594 69.4243 94.1594C69.0645 94.1594 68.7261 94.0193 68.4718 93.765L66.1284 91.4218C65.6031 90.8965 65.6031 90.0417 66.1283 89.5166Z" fill="white"/>
<rect x="103.506" y="1.28497" width="109" height="109" rx="19" transform="rotate(69.6863 103.506 1.28497)" stroke="white" stroke-width="2"/>
<circle opacity="0.5" cx="10" cy="32" r="10" fill="#16ACE8"/>
</g>
<defs>
<filter id="filter0_d" x="-171" y="-426" width="1448" height="2261" filterUnits="userSpaceOnUse" color-interpolation-filters="sRGB">
<feFlood flood-opacity="0" result="BackgroundImageFix"/>
<feColorMatrix in="SourceAlpha" type="matrix" values="0 0 0 0 0 0 0 0 0 0 0 0 0 0 0 0 0 0 127 0"/>
<feOffset dy="4"/>
<feGaussianBlur stdDeviation="2"/>
<feColorMatrix type="matrix" values="0 0 0 0 0 0 0 0 0 0 0 0 0 0 0 0 0 0 0.25 0"/>
<feBlend mode="normal" in2="BackgroundImageFix" result="effect1_dropShadow"/>
<feBlend mode="normal" in="SourceGraphic" in2="effect1_dropShadow" result="shape"/>
</filter>
<linearGradient id="paint0_linear" x1="1247.98" y1="23" x2="1116.86" y2="-531.869" gradientUnits="userSpaceOnUse">
<stop stop-color="#00F3B9"/>
<stop offset="1" stop-color="#2187FF"/>
</linearGradient>
<clipPath id="clip0">
<rect width="1440" height="2253" fill="white" transform="translate(-167 -426)"/>
</clipPath>
</defs>
</svg>
