<svg width="155" height="155" viewBox="0 0 155 155" fill="none" xmlns="http://www.w3.org/2000/svg">
<rect width="155" height="155" fill="#E5E5E5"/>
<rect x="-745" y="-6682" width="2223" height="9737" fill="#C4C4C4" stroke="#666666" stroke-width="6"/>
<g clip-path="url(#clip0)" filter="url(#filter0_d)">
<rect width="1440" height="2253" transform="translate(-486 -420)" fill="#191E30"/>
<path opacity="0.19" d="M954 -377H-486V-97.656C-486 -97.656 -247.835 8.47473 250.011 -91.6486C747.857 -191.772 954 29 954 29V-377Z" fill="url(#paint0_linear)"/>
<circle opacity="0.5" cx="116.5" cy="52.5" r="24.5" fill="#243E65"/>
<path d="M91.5183 54.1113C86.5331 54.1113 82.4917 58.1527 82.4917 63.1379C82.4917 68.1232 86.5331 72.1646 91.5183 72.1646C96.5035 72.1646 100.545 68.1232 100.545 63.1379C100.539 58.155 96.5013 54.1168 91.5183 54.1113ZM91.5183 69.9079C87.7793 69.9079 84.7484 66.8769 84.7484 63.1379C84.7484 59.3989 87.7793 56.368 91.5183 56.368C95.2573 56.368 98.2883 59.3989 98.2883 63.1379C98.2839 66.8751 95.2555 69.9035 91.5183 69.9079Z" fill="white"/>
<path d="M78.2762 93.3047H76.0195V96.6897H78.2762V93.3047Z" fill="white"/>
<path d="M72.2126 82.2234C65.2473 79.5024 61.8066 71.6501 64.5277 64.6848C65.5821 61.9858 67.4745 59.6963 69.9266 58.1528L68.7204 56.2437C61.3389 60.8939 59.1247 70.6476 63.775 78.0291C65.5759 80.8878 68.2461 83.0939 71.3934 84.3232C74.1793 85.3906 76.0189 88.0647 76.0196 91.048H78.2762C78.2798 87.1338 75.8677 83.6235 72.2126 82.2234Z" fill="white"/>
<path d="M53.1783 60.6163L44.1523 62.8726L44.6993 65.0606L53.7253 62.8044L53.1783 60.6163Z" fill="white"/>
<path d="M47.3378 49.5118L46.0269 51.3472L53.9245 56.9882L55.2354 55.1529L47.3378 49.5118Z" fill="white"/>
<path d="M57.8806 43.3775L55.6943 43.9365L58.002 52.9624L60.1883 52.4035L57.8806 43.3775Z" fill="white"/>
<path d="M110.032 61.2243L110.029 61.222L105.64 60.5958C105.023 60.508 104.594 59.9366 104.682 59.3197C104.724 59.0232 104.883 58.7558 105.122 58.5761L108.67 55.9155C109.168 55.5416 109.269 54.8345 108.895 54.3359L104.833 48.9199C104.46 48.4213 103.752 48.3203 103.254 48.6942L99.7074 51.3548C99.211 51.7316 98.5032 51.6345 98.1265 51.1381C97.9436 50.897 97.8652 50.5925 97.9089 50.2931L98.5362 45.9039C98.6247 45.287 98.1963 44.7153 97.5795 44.6268L97.5783 44.6266L90.8805 43.6698C90.2638 43.5812 89.6918 44.0094 89.6033 44.6263L88.9759 49.0158C88.8881 49.6327 88.3167 50.0616 87.6998 49.9738C87.4033 49.9316 87.1359 49.7732 86.9562 49.5337L84.2967 45.9863C83.9229 45.4877 83.2157 45.3867 82.7171 45.7606L79.3265 48.305C77.7925 48.1419 76.2456 48.1419 74.7116 48.305C64.6658 49.4532 56.788 57.4646 55.8088 67.5283C55.7783 67.8476 55.767 68.1646 55.7512 68.4817H55.4127C54.8773 68.4827 54.4163 68.8598 54.3092 69.3844L53.5295 73.092L50.4063 70.9381C49.9581 70.6288 49.3528 70.6839 48.9677 71.069L45.5827 74.4539C45.1983 74.8388 45.1433 75.4433 45.4519 75.8914L47.5957 79.009L43.8869 79.7887C43.3681 79.9023 42.9989 80.3623 43 80.8933V85.4066C42.9997 85.9403 43.3736 86.4012 43.8959 86.5112L47.6047 87.2909L45.4609 90.4085C45.1523 90.8566 45.2073 91.4611 45.5918 91.846L48.9767 95.2309C49.3618 95.616 49.9671 95.6711 50.4154 95.3618L53.5329 93.2124L54.3126 96.9212C54.4197 97.4457 54.8807 97.8228 55.4161 97.8238H59.9294C60.4631 97.8241 60.924 97.4502 61.034 96.9279L61.8137 93.2191L64.9313 95.363C65.3794 95.6716 65.9839 95.6165 66.3688 95.2321L68.1211 93.4741V96.6899C68.1261 98.295 68.9861 99.7758 70.3777 100.576V106.845C70.3777 109.337 72.3984 111.358 74.891 111.358H79.4043C81.8969 111.358 83.9176 109.337 83.9176 106.845V100.576C85.3093 99.7758 86.1692 98.295 86.1743 96.6899V92.2239C86.2049 90.3449 87.1879 88.6101 88.7841 87.6181C89.7205 87.0107 90.6085 86.3315 91.4402 85.5871L89.935 83.9059C89.191 84.5728 88.3961 85.1805 87.5576 85.7237C85.3172 87.1298 83.9457 89.5789 83.9176 92.2239V96.6899C83.9176 97.9362 82.9074 98.9465 81.661 98.9465H72.6344C71.388 98.9465 70.3777 97.9362 70.3777 96.6899V92.1303C70.3516 89.5353 69.0017 87.1335 66.7987 85.762C57.8557 80.1427 55.1612 68.3377 60.7806 59.3947C64.2671 53.846 70.3519 50.4688 76.9051 50.4454C76.8883 50.4856 76.8735 50.5266 76.8611 50.5684C76.8192 50.8646 76.8968 51.1654 77.0766 51.4045L79.7361 54.9508C80.0164 55.3137 80.0434 55.8121 79.8038 56.2033C79.573 56.5968 79.1269 56.8114 78.6754 56.746L74.2862 56.1186C73.6693 56.0302 73.0977 56.4585 73.0091 57.0753L73.009 57.0766L72.051 63.7777C71.9626 64.3945 72.3909 64.9663 73.0077 65.0548L73.009 65.055L77.3982 65.6823C78.0151 65.7702 78.444 66.3415 78.3561 66.9585C78.3139 67.2549 78.1555 67.5223 77.9161 67.702L74.3697 70.3615C73.8712 70.7354 73.7702 71.4426 74.1441 71.9412L78.206 77.3571C78.5799 77.8557 79.2871 77.9567 79.7857 77.5828L83.3332 74.9233C83.8322 74.5501 84.5393 74.6521 84.9125 75.1512C85.0911 75.39 85.168 75.6899 85.1261 75.9851L84.4998 80.3743C84.4113 80.991 84.8395 81.563 85.4564 81.6515L92.1589 82.6095C92.2117 82.6162 92.2649 82.6196 92.318 82.6196C92.8798 82.6203 93.3564 82.2077 93.4362 81.6515L94.0624 77.2623C94.1503 76.6454 94.7216 76.2165 95.3386 76.3044C95.635 76.3466 95.9024 76.505 96.0821 76.7444L98.7427 80.2908C99.1166 80.7893 99.8238 80.8903 100.322 80.5164L105.738 76.4545C106.237 76.0806 106.338 75.3734 105.964 74.8748L103.305 71.3285C103.025 70.965 102.998 70.4674 103.237 70.076C103.463 69.6773 103.913 69.4612 104.365 69.5344L108.754 70.1607C109.371 70.2492 109.943 69.8209 110.032 69.2041L110.988 62.5016C111.077 61.8847 110.649 61.3129 110.032 61.2243ZM72.6344 101.203H81.661V103.46H72.6344V101.203ZM72.6344 105.716H81.661V106.845C81.661 108.091 80.6507 109.101 79.4043 109.101H74.891C73.6446 109.101 72.6344 108.091 72.6344 106.845V105.716ZM63.6518 86.2585C64.2678 86.7623 64.9115 87.2314 65.5801 87.6632C66.6462 88.337 67.4487 89.3563 67.8536 90.5506L65.4334 92.9664L63.0899 91.3506C62.0636 90.6434 60.6585 90.9021 59.9511 91.9283C59.7816 92.1744 59.6626 92.4517 59.6011 92.7441L59.0098 95.5615H56.3278L55.7366 92.7486C55.4799 91.529 54.2831 90.7484 53.0635 91.0051C52.7712 91.0666 52.4939 91.1856 52.2478 91.3551L49.9031 92.9664L47.8473 90.9151L49.4619 88.5727C50.1698 87.5469 49.912 86.1416 48.8862 85.4337C48.6399 85.2637 48.3624 85.1444 48.0696 85.0828L45.2567 84.4904V81.8095L48.0696 81.2171C49.2887 80.9586 50.0676 79.7607 49.809 78.5414C49.7477 78.2522 49.6302 77.9778 49.4631 77.734L47.8473 75.3848L49.9031 73.3335L52.2489 74.9493C53.2755 75.6557 54.6807 75.3962 55.3872 74.3696C55.5564 74.1238 55.6752 73.8468 55.7366 73.5547L55.934 72.6159C56.1148 73.916 56.4143 75.1967 56.8288 76.442C53.1162 76.8846 50.4653 80.2533 50.9079 83.9659C51.3505 87.6785 54.7191 90.3293 58.4317 89.8868C60.6666 89.6202 62.623 88.2604 63.6518 86.2585ZM61.8995 84.6687C61.0569 87.0107 58.4754 88.2261 56.1334 87.3837C53.7915 86.5411 52.576 83.9597 53.4184 81.6177C54.063 79.826 55.7641 78.6327 57.6681 78.6366C57.6828 78.6366 57.6963 78.6366 57.711 78.6366C58.7486 80.874 60.1657 82.9147 61.8995 84.6687ZM107.951 67.7641L104.679 67.297C102.828 67.0326 101.114 68.3188 100.849 70.1694C100.722 71.0581 100.954 71.9609 101.492 72.6791L103.475 75.3227L99.8643 78.0307L97.8807 75.3882C96.7591 73.8925 94.6374 73.5891 93.1418 74.7106C92.4237 75.2491 91.9488 76.0509 91.8216 76.9396L91.3646 80.2163L86.8975 79.5777L87.3647 76.3055C87.6297 74.4549 86.3442 72.7399 84.4936 72.475C83.6044 72.3476 82.7012 72.5789 81.9826 73.118L79.3389 75.1005L76.6309 71.4898L79.2734 69.5062C80.7692 68.3847 81.0726 66.263 79.951 64.7674C79.4125 64.0492 78.6107 63.5743 77.722 63.4471L74.4498 62.98L75.0885 58.5129L78.3606 58.9801C80.2112 59.2451 81.9263 57.9596 82.1912 56.109C82.3185 55.2198 82.0872 54.3166 81.5481 53.5979L79.5589 50.952L83.1696 48.244L85.1532 50.8877C86.2747 52.3834 88.3964 52.6868 89.892 51.5653C90.6102 51.0268 91.085 50.225 91.2123 49.3363L91.6794 46.0641L96.1464 46.7016L95.6793 49.9738C95.415 51.8245 96.701 53.539 98.5517 53.8033C99.4404 53.9302 100.343 53.6989 101.061 53.1602L103.705 51.1777L106.413 54.7883L103.769 56.7719C102.274 57.8935 101.97 60.0152 103.092 61.5108C103.63 62.2289 104.432 62.7038 105.321 62.831L108.593 63.2982L107.951 67.7641Z" fill="white"/>
<path d="M106.484 85.4067H98.5859V87.6634H106.484V85.4067Z" fill="white"/>
<path d="M98.1798 91.3087L96.7354 93.0425L103.506 98.6832L104.95 96.9494L98.1798 91.3087Z" fill="white"/>
<path d="M94.0726 94.4331H91.8159V102.331H94.0726V94.4331Z" fill="white"/>
<rect x="153.113" y="63.6274" width="109" height="109" rx="19" transform="rotate(124.818 153.113 63.6274)" stroke="white" stroke-width="2"/>
<circle opacity="0.5" cx="14.5" cy="90.5" r="7.5" fill="#224561"/>
</g>
<defs>
<filter id="filter0_d" x="-490" y="-420" width="1448" height="2261" filterUnits="userSpaceOnUse" color-interpolation-filters="sRGB">
<feFlood flood-opacity="0" result="BackgroundImageFix"/>
<feColorMatrix in="SourceAlpha" type="matrix" values="0 0 0 0 0 0 0 0 0 0 0 0 0 0 0 0 0 0 127 0"/>
<feOffset dy="4"/>
<feGaussianBlur stdDeviation="2"/>
<feColorMatrix type="matrix" values="0 0 0 0 0 0 0 0 0 0 0 0 0 0 0 0 0 0 0.25 0"/>
<feBlend mode="normal" in2="BackgroundImageFix" result="effect1_dropShadow"/>
<feBlend mode="normal" in="SourceGraphic" in2="effect1_dropShadow" result="shape"/>
</filter>
<linearGradient id="paint0_linear" x1="928.983" y1="29" x2="797.855" y2="-525.869" gradientUnits="userSpaceOnUse">
<stop stop-color="#00F3B9"/>
<stop offset="1" stop-color="#2187FF"/>
</linearGradient>
<clipPath id="clip0">
<rect width="1440" height="2253" fill="white" transform="translate(-486 -420)"/>
</clipPath>
</defs>
</svg>
