<svg width="147" height="147" viewBox="0 0 147 147" fill="none" xmlns="http://www.w3.org/2000/svg">
<rect width="147" height="147" fill="#E5E5E5"/>
<rect x="-1076" y="-6686" width="2223" height="9737" fill="#C4C4C4" stroke="#666666" stroke-width="6"/>
<g clip-path="url(#clip0)" filter="url(#filter0_d)">
<rect width="1440" height="2253" transform="translate(-817 -424)" fill="#191E30"/>
<path opacity="0.19" d="M623 -381H-817V-101.656C-817 -101.656 -578.835 4.47473 -80.9888 -95.6486C416.857 -195.772 623 25 623 25V-381Z" fill="url(#paint0_linear)"/>
<circle opacity="0.5" cx="26" cy="31" r="26" fill="#13B6E1"/>
<path d="M86.3296 75.0995C86.4125 74.5572 86.9207 74.1883 87.463 74.2711C88.0053 74.354 88.3742 74.8623 88.2915 75.4046C87.7078 79.1361 85.795 82.4272 83.0536 84.773C80.3462 87.0849 76.8331 88.4857 72.9999 88.4857C68.7222 88.4857 64.8551 86.7498 62.0536 83.9484C59.2522 81.1468 57.5163 77.276 57.5163 73.0022C57.5163 68.7285 59.2522 64.8575 62.0536 62.0561C64.8551 59.2547 68.7222 57.5225 72.9999 57.5225C76.8331 57.5225 80.3462 58.9195 83.0536 61.2315C85.7949 63.5773 87.7078 66.8684 88.2915 70.5999C88.3744 71.1422 88.0053 71.6505 87.463 71.7333C86.9207 71.8162 86.4125 71.4473 86.3296 70.905C85.8212 67.6555 84.1532 64.7899 81.7622 62.7415C79.4049 60.7309 76.3474 59.5146 72.9999 59.5146C69.2758 59.5146 65.902 61.0247 63.4619 63.4646C61.0182 65.9046 59.5119 69.2784 59.5119 73.0025C59.5119 76.7266 61.0182 80.1004 63.4619 82.5404C65.902 84.9805 69.2758 86.4904 72.9999 86.4904C76.3474 86.4904 79.4049 85.2741 81.7622 83.2635C84.1531 81.2146 85.8212 78.349 86.3296 75.0995ZM95.1632 63.6488C94.7943 63.8634 94.38 63.8634 94.0111 63.6488C90.7388 61.7623 87.4667 59.8759 84.1945 57.9855C83.8896 57.8086 83.6975 57.4811 83.6975 57.127V48.2556C80.2785 46.7795 76.6185 46.0414 72.9584 46.049C69.3285 46.0527 65.6949 46.7908 62.2985 48.2556V57.1269C62.2985 57.5223 62.0726 57.8612 61.7412 58.0231C58.4878 59.8983 55.2383 61.7735 51.9887 63.6487C51.6384 63.8934 51.2055 63.8633 50.8365 63.6487L48.3023 62.1877C46.7961 65.6293 46.043 69.3195 46.043 73.0134C46.0468 76.696 46.7999 80.3824 48.3023 83.8165L50.9192 82.3066C51.2393 82.1221 51.6234 82.1372 51.9208 82.3141L54.5001 83.8053C54.9747 84.0765 55.1366 84.6827 54.8654 85.1571C54.5906 85.6354 53.9843 85.7973 53.5099 85.5261L51.4125 84.3136C48.7767 85.8349 46.1409 87.3561 43.5051 88.881L51.4125 93.4447L59.32 88.881L57.4146 87.7815C56.9402 87.5066 56.7783 86.8967 57.0531 86.4221C57.328 85.9477 57.938 85.7858 58.4124 86.0606L61.8014 88.0187C62.1102 88.1956 62.2984 88.5232 62.2984 88.8772V97.7485C65.7098 99.2208 69.3548 99.9589 72.9997 99.9551C76.6446 99.9551 80.2897 99.2208 83.6974 97.7485V88.8772C83.6974 88.4855 83.927 88.143 84.2585 87.981C87.5345 86.0908 90.8141 84.2005 94.0938 82.3064C94.4139 82.1219 94.798 82.1371 95.0955 82.314L97.6936 83.8164C99.2035 80.3748 99.9565 76.6807 99.9528 72.9907C99.9528 69.3081 99.1998 65.6254 97.6936 62.1876L95.1632 63.6488ZM93.5894 51.9871L85.6894 47.4272V56.5546C88.3252 58.0758 90.9573 59.5972 93.5894 61.1183V51.9871ZM86.6835 45.7026L94.5872 50.2701L102.495 45.7026L100.759 44.701C100.281 44.426 100.119 43.8197 100.39 43.3453C100.665 42.8709 101.271 42.7089 101.745 42.9801L104.965 44.8403C105.281 45.0172 105.469 45.3411 105.469 45.7026L105.477 57.1269C105.477 57.5223 105.247 57.8612 104.916 58.0231C103.086 59.0775 101.256 60.1318 99.426 61.1899C101.098 64.9327 101.938 68.9618 101.938 72.9908C101.941 77.0274 101.102 81.064 99.426 84.818C101.275 85.8836 103.127 86.9493 104.976 88.0187C105.285 88.1956 105.473 88.5232 105.477 88.8772V100.302C105.477 100.697 105.247 101.036 104.916 101.198C101.663 103.073 98.413 104.948 95.1633 106.823C94.7792 107.045 94.3952 107.049 94.0112 106.823C90.7502 104.914 87.4669 103.05 84.1946 101.16C83.8897 100.983 83.6976 100.656 83.6976 100.302V99.9025C80.2748 101.262 76.6375 101.94 73 101.943C69.3625 101.943 65.7252 101.262 62.2986 99.9025V100.302C62.2986 100.697 62.0727 101.036 61.7413 101.198C58.488 103.073 55.2384 104.948 51.9888 106.823C51.6085 107.045 51.2696 107.072 50.8366 106.823C47.5494 104.959 44.2923 103.05 41.0201 101.16C40.7151 100.983 40.5229 100.656 40.5229 100.302V88.8772C40.5229 88.4855 40.7527 88.143 41.0841 87.981C42.9141 86.9267 44.7441 85.8723 46.574 84.8142C44.8983 81.0714 44.0625 77.0423 44.0587 73.0133C44.0587 68.9767 44.8946 64.9401 46.574 61.1898C44.7253 60.1204 42.8727 59.0548 41.0201 57.9854C40.7151 57.8085 40.5229 57.481 40.5229 57.1269V45.7026C40.5229 45.311 40.7527 44.9684 41.0841 44.8064C44.36 42.9162 47.6397 41.026 50.9194 39.1319C51.2395 38.9474 51.6236 38.9625 51.9209 39.1394C55.2119 41.041 58.4991 42.9388 61.7902 44.8366C62.2985 45.1228 62.2985 45.5633 62.2985 46.1056C65.7138 44.75 69.3324 44.0684 72.9584 44.0647C76.6072 44.0571 80.2558 44.7387 83.6975 46.1056V45.7026C83.6975 45.311 83.9271 44.9684 84.2586 44.8064C87.5346 42.9162 90.8143 41.026 94.0939 39.1319C94.414 38.9474 94.7981 38.9625 95.0956 39.1394L97.8369 40.7248C98.3114 40.996 98.477 41.6022 98.2021 42.0766C97.931 42.5548 97.3249 42.7167 96.8466 42.4457L94.5873 41.1391C91.9514 42.66 89.3156 44.1813 86.6835 45.7026ZM95.5812 51.9871V61.1183C98.2171 59.5971 100.849 58.0758 103.481 56.5546V47.4235L95.5812 51.9871ZM93.5894 95.1617L85.6894 90.598V99.7293C88.3252 101.251 90.9573 102.772 93.5894 104.293V95.1617ZM86.6797 88.8809L94.5872 93.4446L102.495 88.8809C99.8551 87.356 97.223 85.8347 94.5872 84.3135C91.9514 85.8347 89.3156 87.356 86.6797 88.8809ZM50.4147 95.1617L42.5149 90.598V99.7293C45.1507 101.251 47.7827 102.772 50.4147 104.293V95.1617ZM52.4066 95.1617V104.293C55.0425 102.772 57.6745 101.251 60.3066 99.7293V90.598L52.4066 95.1617ZM50.4147 51.9871L42.5149 47.4272V56.5546C45.1507 58.0758 47.7827 59.5972 50.4147 61.1183V51.9871ZM43.509 45.7026L51.4126 50.2663L59.3163 45.7026C56.6805 44.1813 54.0484 42.66 51.4126 41.1389C48.7767 42.66 46.1409 44.1813 43.509 45.7026ZM52.4066 51.9871V61.1183C55.0425 59.5971 57.6745 58.0758 60.3066 56.5546V47.4272L52.4066 51.9871ZM103.481 90.598L95.5812 95.1617V104.293C98.2171 102.772 100.849 101.251 103.481 99.7293V90.598ZM65.8079 66.9247C65.2581 66.9247 64.8101 66.4766 64.8101 65.9269C64.8101 65.3772 65.2582 64.929 65.8079 64.929H69.7429V63.3739C69.7429 62.8242 70.1872 62.3798 70.7407 62.3798C71.2904 62.3798 71.7347 62.8242 71.7347 63.3739V64.929H74.2613V63.3739C74.2613 62.8242 74.7094 62.3798 75.2591 62.3798C75.809 62.3798 76.257 62.8242 76.257 63.3739V65.042C77.108 65.234 77.8723 65.6633 78.4748 66.262C79.3033 67.0829 79.8153 68.2163 79.8153 69.4664C79.8153 70.8483 79.1788 72.1436 78.0981 73.0021C79.1788 73.8643 79.8153 75.1559 79.8153 76.5416C79.8153 77.7879 79.3033 78.9213 78.4748 79.7422C77.8723 80.3409 77.1079 80.7739 76.257 80.9659V82.6303C76.257 83.1802 75.8088 83.6282 75.2591 83.6282C74.7094 83.6282 74.2613 83.1801 74.2613 82.6303V81.0752H71.7347V82.6303C71.7347 83.1802 71.2904 83.6282 70.7407 83.6282C70.1872 83.6282 69.7429 83.1801 69.7429 82.6303V81.0752H65.8079C65.2581 81.0752 64.8101 80.6271 64.8101 80.0773C64.8101 79.5276 65.2582 79.0832 65.8079 79.0832H67.0731V66.9246H65.8079V66.9247ZM69.065 73.9999V79.0832H75.2591C75.967 79.0832 76.6109 78.797 77.0741 78.3339C77.5373 77.8746 77.8235 77.238 77.8235 76.5414C77.8235 75.8411 77.5373 75.2048 77.0741 74.7454C76.611 74.286 75.967 73.9998 75.2591 73.9998H69.065V73.9999ZM75.2591 66.9247H69.065V72.008H75.2591C75.967 72.008 76.6109 71.7181 77.0741 71.2587C77.5373 70.7993 77.8235 70.163 77.8235 69.4664C77.8235 68.7661 77.5373 68.1296 77.0741 67.6702C76.6109 67.2108 75.967 66.9247 75.2591 66.9247Z" fill="white"/>
<rect x="101.069" y="1.31827" width="109" height="109" rx="19" transform="rotate(66.226 101.069 1.31827)" stroke="white" stroke-width="2"/>
<circle opacity="0.5" cx="120.5" cy="110.5" r="7.5" fill="#224760"/>
</g>
<defs>
<filter id="filter0_d" x="-821" y="-424" width="1448" height="2261" filterUnits="userSpaceOnUse" color-interpolation-filters="sRGB">
<feFlood flood-opacity="0" result="BackgroundImageFix"/>
<feColorMatrix in="SourceAlpha" type="matrix" values="0 0 0 0 0 0 0 0 0 0 0 0 0 0 0 0 0 0 127 0"/>
<feOffset dy="4"/>
<feGaussianBlur stdDeviation="2"/>
<feColorMatrix type="matrix" values="0 0 0 0 0 0 0 0 0 0 0 0 0 0 0 0 0 0 0.25 0"/>
<feBlend mode="normal" in2="BackgroundImageFix" result="effect1_dropShadow"/>
<feBlend mode="normal" in="SourceGraphic" in2="effect1_dropShadow" result="shape"/>
</filter>
<linearGradient id="paint0_linear" x1="597.983" y1="25" x2="466.855" y2="-529.869" gradientUnits="userSpaceOnUse">
<stop stop-color="#00F3B9"/>
<stop offset="1" stop-color="#2187FF"/>
</linearGradient>
<clipPath id="clip0">
<rect width="1440" height="2253" fill="white" transform="translate(-817 -424)"/>
</clipPath>
</defs>
</svg>
