<svg width="155" height="155" viewBox="0 0 155 155" fill="none" xmlns="http://www.w3.org/2000/svg">
<rect width="155" height="155" fill="#E5E5E5"/>
<rect x="-1399" y="-6682" width="2223" height="9737" fill="#C4C4C4" stroke="#666666" stroke-width="6"/>
<g clip-path="url(#clip0)" filter="url(#filter0_d)">
<rect width="1440" height="2253" transform="translate(-1140 -420)" fill="#191E30"/>
<path opacity="0.19" d="M300 -377H-1140V-97.656C-1140 -97.656 -901.835 8.47473 -403.989 -91.6486C93.8569 -191.772 300 29 300 29V-377Z" fill="url(#paint0_linear)"/>
<circle opacity="0.5" cx="56" cy="56" r="26" fill="#15B2E4"/>
<path d="M44.4953 84.6405L46.7412 83.6507C47.2475 83.4276 47.8395 83.6574 48.0626 84.1638C48.2862 84.6701 48.0563 85.2605 47.5495 85.4841L45.3036 86.4755C45.1511 86.5419 45.1194 86.6358 45.1194 86.7038C45.1194 86.7707 45.1511 86.8641 45.3036 86.931L63.6623 95.0269C63.7775 95.0777 63.9243 95.0777 64.0405 95.0269C69.8064 92.4842 67.917 93.3174 73.0261 91.0638L66.3658 87.9987C63.9622 89.4555 59.9934 88.3453 59.9934 85.8981C59.9934 84.3557 61.6878 83.1474 63.8511 83.1474C66.2822 83.1474 68.0627 84.6644 67.6503 86.3832L75.4743 89.9842C76.3049 89.6179 81.5681 87.2973 82.3982 86.931C82.6446 86.8231 82.6461 86.5845 82.3982 86.4755L64.0405 78.3797C63.9243 78.3289 63.7775 78.3289 63.6613 78.3797C54.6435 82.3552 64.2397 78.125 51.2174 83.867C50.711 84.0906 50.1191 83.8608 49.896 83.3539C49.6729 82.8476 49.9027 82.2572 50.4091 82.0326L57.6567 78.8378V62.0583C57.6567 59.3253 57.6567 58.1435 57.6567 55.3482C57.6567 53.5184 59.1462 52.0383 60.9661 52.0383H70.1027V48.8917C70.1027 45.8521 72.5758 43.3774 75.6159 43.3774H79.4037C79.9583 43.3774 80.406 43.8262 80.406 44.3798C80.406 44.9338 79.9583 45.3816 79.4037 45.3816H75.6159C73.6808 45.3816 72.1068 46.9571 72.1068 48.8917V52.0383H73.7332V48.8917C73.7332 47.8536 74.5778 47.008 75.6159 47.008H93.0408C94.0789 47.008 94.9245 47.8536 94.9245 48.8917V52.0383H96.5504V48.8917C96.5504 46.9571 94.9754 45.3816 93.0408 45.3816H83.4124C82.8589 45.3816 82.4101 44.9338 82.4101 44.3798C82.4101 43.8262 82.8589 43.3774 83.4124 43.3774H93.0408C96.0804 43.3774 98.5551 45.8521 98.5551 48.8917V52.0383H107.69C109.515 52.0383 111 53.5231 111 55.3482V79.657C111 80.21 110.552 80.6588 109.998 80.6588C109.445 80.6588 108.996 80.21 108.996 79.657V68.3114C107.479 70.4333 105.212 71.9834 102.587 72.5738V75.5128C102.587 76.6931 101.626 77.6539 100.445 77.6539H97.4345C96.2537 77.6539 95.2929 76.6931 95.2929 75.5128V72.8358H73.3638V75.5128C73.3638 76.6931 72.403 77.6539 71.2227 77.6539H68.2116C67.0308 77.6539 66.0706 76.6931 66.0706 75.5128V72.5738C63.4444 71.984 61.1773 70.4333 59.6608 68.3114V77.9532L62.853 76.5463C63.4833 76.2682 64.2184 76.2682 64.8493 76.5463L83.2064 84.6405C85.0482 85.453 85.0456 87.9541 83.2064 88.7655L79.7087 90.3074V90.9647H103.058C106.333 90.9647 108.996 88.3017 108.996 85.0281V83.6652C108.996 83.1122 109.445 82.6634 109.998 82.6634C110.552 82.6634 111 83.1122 111 83.6652V85.0281C111 89.4067 107.438 92.9688 103.058 92.9688H79.7082V100.4C79.7082 101.873 78.4309 103.065 76.392 103.966V105.285L79.772 109.772C80.1051 110.215 80.0164 110.843 79.5743 111.175C79.1323 111.509 78.5041 111.42 78.171 110.978L76.392 108.616V110.375C76.392 110.929 75.9433 111.377 75.3897 111.377C74.8367 111.377 74.3879 110.929 74.3879 110.375V108.617L72.6095 110.978C72.4123 111.24 72.112 111.377 71.8079 111.377C70.9908 111.377 70.5084 110.436 71.0085 109.772L74.3879 105.286V104.691C65.063 107.458 47.993 105.784 47.993 100.399V90.3074L44.4953 88.7655C43.644 88.3899 43.1148 87.5987 43.1148 86.7038C43.1148 85.8073 43.644 85.0162 44.4953 84.6405ZM63.8506 85.1516C62.6346 85.1516 61.9975 85.7062 61.9975 85.8981C61.9975 86.0901 62.6346 86.6441 63.8506 86.6441C65.0573 86.6441 65.7043 86.0916 65.7043 85.8981C65.7043 85.7062 65.0672 85.1516 63.8506 85.1516ZM92.9204 49.0121H75.7373V52.0383H92.9204V49.0121ZM97.297 75.5128C97.297 75.588 97.3587 75.6498 97.4345 75.6498H100.445C100.521 75.6498 100.583 75.588 100.583 75.5128V72.8296C100.463 72.8332 100.343 72.8358 100.222 72.8358H97.297V75.5128ZM97.297 70.8317H100.222C100.343 70.8317 100.463 70.827 100.583 70.8224V68.0857C100.583 68.01 100.521 67.9482 100.445 67.9482H97.4345C97.3587 67.9482 97.297 68.01 97.297 68.0857V70.8317ZM68.0747 75.5128C68.0747 75.588 68.1359 75.6498 68.2116 75.6498H71.2222C71.298 75.6498 71.3592 75.588 71.3592 75.5128V72.8358H68.4337C68.3138 72.8358 68.194 72.8337 68.0747 72.8296V75.5128ZM68.0747 70.8224C68.194 70.827 68.3133 70.8317 68.4337 70.8317H71.3597V68.0857C71.3597 68.01 71.298 67.9482 71.2227 67.9482H68.2116C68.1359 67.9482 68.0747 68.01 68.0747 68.0857V70.8224ZM66.07 70.5054V68.0852C66.07 66.9044 67.0308 65.9441 68.2116 65.9441H71.2222C72.403 65.9441 73.3638 66.9044 73.3638 68.0852V70.8312H95.2929V68.0852C95.2929 66.9044 96.2537 65.9441 97.4345 65.9441H100.445C101.626 65.9441 102.587 66.9044 102.587 68.0852V70.5054C106.279 69.4704 108.996 66.0764 108.996 62.0583V55.3482C108.996 54.6281 108.411 54.0429 107.69 54.0429H60.9661C60.1921 54.0429 59.6608 54.6769 59.6608 55.3482V62.0583C59.6608 66.0764 62.3772 69.4709 66.07 70.5054ZM76.392 101.742C77.3861 101.182 77.7041 100.679 77.7041 100.4C77.7041 99.4564 77.7041 92.0822 77.7041 91.1919L76.392 91.7704V101.742ZM49.9977 100.4C49.9977 100.834 50.766 101.808 53.6438 102.7C59.1825 104.417 68.5172 104.503 74.3879 102.595V92.6378C73.4344 93.0793 74.8237 92.4614 64.8488 96.8598C64.2143 97.1394 63.489 97.1405 62.853 96.8598L49.9977 91.1919V100.4Z" fill="white"/>
<rect x="153.113" y="63.6274" width="109" height="109" rx="19" transform="rotate(124.818 153.113 63.6274)" stroke="white" stroke-width="2"/>
<circle opacity="0.5" cx="132.5" cy="97.5" r="7.5" fill="#01218F"/>
</g>
<defs>
<filter id="filter0_d" x="-1144" y="-420" width="1448" height="2261" filterUnits="userSpaceOnUse" color-interpolation-filters="sRGB">
<feFlood flood-opacity="0" result="BackgroundImageFix"/>
<feColorMatrix in="SourceAlpha" type="matrix" values="0 0 0 0 0 0 0 0 0 0 0 0 0 0 0 0 0 0 127 0"/>
<feOffset dy="4"/>
<feGaussianBlur stdDeviation="2"/>
<feColorMatrix type="matrix" values="0 0 0 0 0 0 0 0 0 0 0 0 0 0 0 0 0 0 0.25 0"/>
<feBlend mode="normal" in2="BackgroundImageFix" result="effect1_dropShadow"/>
<feBlend mode="normal" in="SourceGraphic" in2="effect1_dropShadow" result="shape"/>
</filter>
<linearGradient id="paint0_linear" x1="274.983" y1="29" x2="143.855" y2="-525.869" gradientUnits="userSpaceOnUse">
<stop stop-color="#00F3B9"/>
<stop offset="1" stop-color="#2187FF"/>
</linearGradient>
<clipPath id="clip0">
<rect width="1440" height="2253" fill="white" transform="translate(-1140 -420)"/>
</clipPath>
</defs>
</svg>
